PathFileType	4	(X/Y/Z)	T00_JumpTrial_0-2667.trc
DataRate	CameraRate	NumFrames	NumMarkers	Units	OrigDataRate	OrigDataStartFrame	OrigNumFrames
30	30	15	21	m	30	666	2667
Frame#	Time	RHip			RKnee			RAnkle			RBigToe			RSmallToe			RHeel			LHip			LKnee			LAnkle			LBigToe			LSmallToe			LHeel			Neck			Head			Nose			RShoulder			RElbow			RWrist			LShoulder			LElbow			LWrist		
		X1	Y1	Z1	X2	Y2	Z2	X3	Y3	Z3	X4	Y4	Z4	X5	Y5	Z5	X6	Y6	Z6	X7	Y7	Z7	X8	Y8	Z8	X9	Y9	Z9	X10	Y10	Z10	X11	Y11	Z11	X12	Y12	Z12	X13	Y13	Z13	X14	Y14	Z14	X15	Y15	Z15	X16	Y16	Z16	X17	Y17	Z17	X18	Y18	Z18	X19	Y19	Z19	X20	Y20	Z20	X21	Y21	Z21
667	22.233333333333334	-15.35364611012494	3.801593923536707	6.4204926071181685				-6.08171259689874	-0.8957831376552299	3.5204014749496637																-5.608863305380721	-0.9618390994948909	3.2601537663733064													-6.63348971612478	-0.8332529155571545	3.8358191181214667	-5.876311811952547	-0.8907931516509194	3.3693261620708213	-11.951075371479268	1.6951219624786595	6.264559223964017	-14.446091798514184	3.596517467221759	5.569862807251734				-8.881070341141712	0.07372640860180658	4.778521130343453	-14.109848375496757	3.5329326414095306	7.147022509397228	-12.545035571823366	2.9024461629868092	4.61963727268732
668	22.266666666666666	-15.338182622595296	3.814938022586381	6.419744770812825				-6.407602444569011	-0.8494134416278499	3.5801873535120836																-5.8677565912532605	-0.9110496986714647	3.3037322677985146													-6.890384584060475	-0.7964828917069674	3.8843297810971014	-5.601522989335935	-0.9092642646581196	3.3019610666774275	-12.078637133095247	1.7369859079194119	6.306091265969854	-13.980119772724334	3.434068706519147	5.458805505122801				-9.398699753182601	0.19582171091869258	4.904967393297346	-16.37445221951192	4.336267540495985	7.795292986765719	-13.912791369900072	3.272193666315883	4.93156334036619
669	22.3	-15.391936924404469	3.841356349063832	6.435557949980502				-6.437561970456851	-0.850607081180186	3.561252303144997																-6.153352810840291	-0.8799413366017877	3.3274438295259245													-6.902246781084986	-0.7945623068810367	3.86335120272532	-5.88838685810869	-0.859980181276192	3.353199508667465	-12.058600133968982	1.7309598916680329	6.299884651432867	-14.003668389782447	3.448860390277492	5.465586857539873				-9.41938303392592	0.20891840732809305	4.9106663360472735	-18.109746430978607	4.744107648176096	8.301290875464405	-13.92115303895601	3.28002457221831	4.93444731833204
670	22.333333333333332	-15.732669736331225	3.9179931127457173	6.525704071835772				-6.667019552850675	-0.8154876443077423	3.600341151129777																-6.4740180528743725	-0.8337618439875073	3.38021501229172													-6.9037523141228805	-0.7950820584571817	3.8631400618685574	-5.577863311665681	-0.8738363465090284	3.2808520781242634	-11.966670973099408	1.701003158978708	6.270263938010497	-12.899577377608976	3.0859083486951557	5.228116808022354				-9.39836015357886	0.18546694364638275	4.902270676332422	-17.463308748509785	4.6056419524823875	8.001792328825786	-13.376608172820417	3.0625863892833647	4.855831336133338
671	22.366666666666667	-15.29271502239631	3.779990918565419	6.4076866232218155				-6.712981637458097	-0.8222044386972376	3.6079085062294385																-6.427108034750307	-0.8512614944404461	3.3688918881747925													-6.903583475930132	-0.7951606889393857	3.8625941469161216	-5.784390696402208	-0.8637966585387531	3.3105338612343393	-12.060715829899422	1.7394207159550124	6.303226141547019	-13.165019768589655	3.145012434634776	5.3291895176708115				-9.403059499917884	0.18814129360526358	4.904485986930493	-16.54419107128079	4.285180346897932	7.686259909414661	-15.326860932615041	3.5833753470842944	5.279673433854484
672	22.4	-15.633499646236102	3.860544044884385	6.542355435143168				-6.662003207532414	-0.8389601743506656	3.5961272326951015																-6.614137248800183	-0.8543898516019282	3.392725444509288													-6.9013356639652885	-0.7931135999260266	3.8629289639709397	-5.821795868006866	-0.870284534816285	3.31654419314878	-12.009762299447079	1.7111429987274556	6.287851328122899	-13.924647197784168	3.2343027439179632	5.55702045933821				-9.388514543786682	0.13729558363148692	4.8951867321573195	-17.819261819568638	4.607525843220166	8.046858456627236	-15.407258400639032	3.5856555613706065	5.309228885711732
673	22.433333333333334	-15.441826372028626	3.706744499502823	6.480541595726757				-6.613573131232242	-0.8526278123843792	3.5863029138918456																-6.546318057302889	-0.8877938390136862	3.3769579021822302													-6.848613220181602	-0.8066156067755865	3.8514014052536805	-6.0743987893162155	-0.8648848708751857	3.354833027853557	-11.26921488157979	1.5145795490625467	6.073210214914855	-14.209839431788614	3.2013125495237116	5.657789790229441				-9.368290003245491	0.12376346971629631	4.889308504611227	-18.259920118467157	4.665179647030805	8.173008724428758	-14.491899431645045	3.303844875262138	5.145961841454722
674	22.466666666666665	-15.266135057453038	3.544753803317203	6.421501920170894				-6.535557186760962	-0.8890526517023035	3.5663896878519945																-6.540044583903056	-0.9227574258768422	3.3698214178682475													-6.83971556709471	-0.8309868774043945	3.8467145235302884	-6.380362146367425	-0.8370081762324795	3.429405380844896	-11.404499645064908	1.4962881821280012	6.109761739179676	-15.178324503018255	3.4192832413715255	5.949421026342914				-9.363002009458839	0.09990394316225856	4.884317060623639	-17.799480286837955	4.488964862236905	8.02430298262966	-14.912167889301761	3.4036176202846935	5.277185773814278
675	22.5	-15.142213969269783	3.44750172212116	6.424935822250388				-6.4824552214846785	-0.9400102891978221	3.5481769269434125																-6.517595580916713	-0.9465282760414422	3.3618198648811237													-6.711889565213985	-0.888317145321338	3.8119687291156232	-6.3629341624348905	-0.8564986558138455	3.425926173836757	-11.505758498481658	1.4849876640653006	6.136780903799316	-15.779347313093083	3.592952379283498	6.116991721877492				-9.327932310364645	0.05980411655900802	4.8698068970620385	-19.258440771672515	4.929618829546375	8.50163171646713	-16.054307541796916	3.7128334600670545	5.54070130414381
676	22.533333333333335	-15.509350848209406	3.5299779190346365	6.523850894353216				-6.494396026170277	-0.980922764232556	3.5443471192559803																-6.8326518262683535	-0.9441407127006455	3.430323861660072													-6.68744033943708	-0.9216193416695736	3.801733004230805	-6.09548314937678	-0.8837391903524633	3.3837554175433717	-12.214186816028164	1.624279707259964	6.370540825393051	-16.251151281816963	3.705716944352255	6.232840746163022				-9.322273531642601	0.056508591333833014	4.868235030576717	-19.75217898950611	5.051403693667277	8.70808979156321	-14.763197604668083	3.317384308243432	5.287189171043982
677	22.566666666666666	-14.337340249661281	3.1986236019286367	6.2323462456855445				-6.769119429931341	-0.9622485186964634	3.612245818476594																-6.529299739881679	-0.9982615414451415	3.379591312719572													-6.945825827482286	-0.9190880869147254	3.869156208854406	-6.272324271232204	-0.8862420276867804	3.431282219916438	-12.083990930880782	1.5769257528526646	6.326739910468512	-16.242366903533814	3.7073329411483193	6.23203199965344				-9.302611959314003	0.03777333331879746	4.8608724584653356	-21.47456898626576	5.580564809592025	9.277506456283792	-13.686175731952433	3.0150139306060013	5.079972243757195
678	22.6	-14.881717494723041	3.337464306295169	6.396604530324779				-6.800563891045679	-0.9704518593914757	3.6177285677420072																-6.530784642302141	-0.9972842648682604	3.3806211213547877													-6.95185389986559	-0.9253103306433613	3.868503241587629	-6.505769149775772	-0.8983798453005508	3.4877860791668747	-12.078656319492321	1.5705967326962698	6.324593204068563	-14.524615768815156	3.2153769407191426	5.831801409537999				-9.27892630974848	0.0543400365669144	4.88860646825409	-21.362443546735573	5.615171291097864	9.3116020101573	-13.540571129970361	2.940488633883333	5.08781013913733
679	22.633333333333333	-3.8846288470140244	0.5720313778576827	3.743856048344108	-2.988172245748212	2.0634596637765963	3.6211175373442184	-5.029185659479776	-0.9877114365785211	3.3683539448288173	-3.521833045588153	2.6463511044217647	3.14661156574652	-3.5380223662638874	2.5391233787029477	3.1362911954458528	-3.2637679862320366	2.284900516925883	3.4500986846112567	-3.135548732261544	2.1546204826251456	3.316395475613053	-3.641866818507758	1.4865114318564294	3.726393570513581	-5.092328458122126	-0.975201182770619	3.214294080237703	-3.4760310672491457	2.604271331693142	3.5664802059127396	-3.584664381678377	2.673950774165143	3.7378292290462536	-2.694210005786224	1.9335021653119802	3.599797585239733				-4.322556635199279	-1.0442450708204796	3.414326932589404	-5.134599925160569	-0.8909077743471484	3.314486469511743	-3.36689422470498	-0.09033961647763966	3.924464124142517	-3.799221523618156	0.5280106593582492	3.4913187690474636	-3.7916790394318776	1.4920519964041266	3.317124693154417	-3.8756318073161236	-0.6181659595697515	3.6617538582220073	-4.031497702578109	0.8124213829976575	4.202250306967047	-3.7902158487280113	0.5150867021774932	3.275322752591928
680	22.666666666666668	-4.10497861883048	0.6457503226105008	3.8391670658819015	-2.9788622995271794	2.090913861505329	3.622768768765202	-4.869595589243618	-1.0087253350898961	3.339130172858113	-3.6459432431434813	2.7109436925702926	3.1899731471601918	-3.5427318425821026	2.5402486356567797	3.1374868038934896	-3.2605259571386864	2.282743489568263	3.4488177700872	-3.1339618955782864	2.153077573045917	3.315712282411024	-3.610044014791608	1.4941735024528018	3.739820809359675	-4.780662894235021	-1.0161052979927359	3.162506961545319	-3.4733173033725797	2.6038524562316825	3.565516653824992	-3.580452728378317	2.699338393448098	3.740041432588057	-2.7041606678564007	1.9845018462228283	3.6096964635173205				-4.430449738499103	-1.030738001218473	3.4548614552189463	-5.132431572191961	-0.8915228360808984	3.3144341391309986	-3.364749014807271	-0.08980940414732665	3.924279525926392	-3.8981395472300493	0.5509779902618378	3.5305825389053984	-3.7785962617467885	1.5104646919317408	3.316979681906767	-3.874444015549206	-0.6177972576192741	3.662010818651039	-4.046886151034054	0.8320315919425756	4.210528581979839	-3.895745112783369	0.5593720134276765	3.3172624452245913
681	22.7	-3.934280631197661	0.5967263613341449	3.8146898094747157	-2.9787578352080146	2.0914889880644747	3.622628783246441	-4.716729774013095	-1.0281856216854124	3.311231838584599	-3.5261996112190266	2.636796599220938	3.145832151591099	-3.4285712616365047	2.458995162018747	3.0945008243208325	-3.388865117473909	2.360648024157581	3.479855018069442	-3.24975450958898	2.2221610143508426	3.341923086523162	-3.607277690292415	1.493132419451496	3.739744027022023	-4.775670750684689	-1.0165232160385682	3.1619882957921295	-3.7443189446322096	2.7719023060943595	3.632213009219417	-3.5866534490958837	2.701064741756783	3.7412796677107076	-2.7142696768826435	2.002092324108735	3.6147890136179295				-4.413257462483184	-1.0428248132812001	3.4691938424831346	-5.110062508769318	-0.885562581477931	3.331934719436216	-3.3686856190201007	-0.07687866686957984	3.9283473055892397	-3.767504261438133	0.5171587366885168	3.5026264902627235	-3.776537933106045	1.4985825564452275	3.3152495994578848	-3.972351160018657	-0.5991116566469353	3.7037715007952055	-4.032535349788604	0.8395349539988531	4.2071568096694465	-3.8765502953258544	0.5396734838229337	3.3313177579842357
